# xmcd
#
# Track frame offsets:
# 150
# 15869
# 30534
# 42372
# 61029
# 80730
# 100854
# 123103
# 141480
# 160773
# 182676
# 201228
# 222797
# 235482
# 252579
# 267643
# 287985
# 310132
# 330515
# 343097
#
# Disc length: 4753 seconds
#
#
# Revision: 0
# Processed by: cddbd v1.5.2PL0 Copyright (c) Steve Scherf et al.
# Submitted via: FreeRIP 2.944 
#
DISCID=26128f14
DTITLE=ALEJANDRO FERNÁNDEZ - ALEJANDRO FERNÁNDEZ
DYEAR=1900
DGENRE=Latin
TTITLE0=TANTITA PENA
TTITLE1=SI TU NO VUELVAS
TTITLE2=TU REGRESARAS
TTITLE3=SI TU SUPIERAS
TTITLE4=NO SE OLVIDAR
TTITLE5=YO NACI PARA AMARTE
TTITLE6=QUIERE ME
TTITLE7=SI TE VAS
TTITLE8=ME ESTOY ENAMORANDO
TTITLE9=EN EL JARDIN (DUO GLORIA STEFAN)
TTITLE10=QUISIERA
TTITLE11=TE JURO
TTITLE12=QUE SEAS MUY FELIZ
TTITLE13=VOLVERAS
TTITLE14=LOCO
TTITLE15=HABLAME
TTITLE16=ESTAS AQUI
TTITLE17=ENTRE TUS BRAZOS
TTITLE18=QUE SERA DE TI
TTITLE19=ME RECORDARAS LLORANDO
EXTD=
EXTT0=
EXTT1=
EXTT2=
EXTT3=
EXTT4=
EXTT5=
EXTT6=
EXTT7=
EXTT8=
EXTT9=
EXTT10=
EXTT11=
EXTT12=
EXTT13=
EXTT14=
EXTT15=
EXTT16=
EXTT17=
EXTT18=
EXTT19=
PLAYORDER=
